{"title":"Traci Lords (exercise)","uid":5283338,"size":141932084,"categoryP":"video","categoryS":"movie_clips","magnet":"?xt=urn:btih:9b99a6073f64878e6bfa08d12c953cf81849e808&amp;dn=Traci+Lords+%28exercise%29&amp;tr=udp%3A%2F%2Ftracker.openbittorrent.com%3A80&amp;tr=udp%3A%2F%2Fopen.demonii.com%3A1337&amp;tr=udp%3A%2F%2Ftracker.coppersurfer.tk%3A6969&amp;tr=udp%3A%2F%2Fexodus.desync.com%3A6969","seeders":1,"leechers":0,"uploader":"Beebe85","files":-1,"time":1263629369,"description":"General\nComplete name                    : Traci_Lords_warmup.avi\nFormat                           : AVI\nFormat/Info                      : Audio Video Interleave\nFile size                        : 135 MiB\nDuration                         : 9mn 16s\nOverall bit rate                 : 2039 Kbps\nWriting library                  : VirtualDub-MPEG2 build 24586/release\n\nVideo\nID                               : 0\nFormat                           : MPEG-4 Visual\nFormat profile                   : Simple@L3\nFormat settings, BVOP            : Yes\nFormat settings, QPel            : No\nFormat settings, GMC             : No warppoints\nFormat settings, Matrix          : Default (H.263)\nMuxing mode                      : Packed bitstream\nCodec ID                         : XVID\nCodec ID/Hint                    : XviD\nDuration                         : 9mn 16s\nBit rate                         : 1803 Kbps\nWidth                            : 720 pixels\nHeight                           : 480 pixels\nDisplay aspect ratio             : 1.500\nFrame rate                       : 29.970 fps\nStandard                         : NTSC\nResolution                       : 24 bits\nColorimetry                      : 4:2:0\nScan type                        : Progressive\nBits/(Pixel*Frame)               : 0.174\nStream size                      : 120 MiB (88%)\nWriting library                  : XviD 1.1.0 Beta2 (UTC 2005-04-04)\n\nAudio\nID                               : 1\nFormat                           : AC-3\nFormat/Info                      : Audio Coding 3\nCodec ID                         : 2000\nDuration                         : 9mn 16s\nBit rate mode                    : Constant\nBit rate                         : 224 Kbps\nChannel(s)                       : 2 channels\nChannel positions                : L R\nSampling rate                    : 48.0 KHz\nStream size                      : 14.9 MiB (11%)\nAlignment                        : Aligned on interleaves\nInterleave, duration             : 33 ms (1.00 video frame)\nInterleave, preload duration     : 512 ms\n\n","torrent":{"xt":"urn:btih:9b99a6073f64878e6bfa08d12c953cf81849e808","amp;dn":"Traci+Lords+%28exercise%29","amp;tr":["udp%3A%2F%2Ftracker.openbittorrent.com%3A80","udp%3A%2F%2Fopen.demonii.com%3A1337","udp%3A%2F%2Ftracker.coppersurfer.tk%3A6969","udp%3A%2F%2Fexodus.desync.com%3A6969"],"infoHash":"9b99a6073f64878e6bfa08d12c953cf81849e808","infoHashBuffer":{"type":"Buffer","data":[155,153,166,7,63,100,135,142,107,250,8,209,44,149,60,248,24,73,232,8]},"announce":[],"urlList":[]}}